<svg xmlns="http://www.w3.org/2000/svg" width="200" height="170" viewBox="0 0 200 170" fill="none">
  <path d="M-42.1715 -10.3126C-49.0002 -13.6361 -54.8275 -19.1199 -58.9349 -26.0879C-63.0423 -33.0559 -65.25 -41.2034 -65.2861 -49.5261C-65.3223 -57.8487 -63.1851 -65.9824 -59.1381 -72.9244C-55.0911 -79.8664 -49.3111 -85.3132 -42.511 -88.5932L138.882 -176.028C149.463 -181.144 161.456 -181.325 172.224 -176.531C182.992 -171.737 191.655 -162.36 196.308 -150.461C198.599 -144.555 199.832 -138.208 199.936 -131.785C200.04 -125.362 199.013 -118.989 196.914 -113.031C194.815 -107.073 191.685 -101.646 187.703 -97.0624C183.721 -92.4784 178.966 -88.8269 173.71 -86.317L89.8745 -45.8019L149.316 -16.8336L158.757 -12.2331C196.866 6.29471 197.125 66.7236 159.188 85.0327L156.458 86.3321L-8.96162 166.048C-19.545 171.152 -31.5357 171.318 -42.2963 166.51C-53.057 161.702 -61.7064 152.313 -66.3418 140.409C-70.976 128.504 -71.2165 115.06 -67.0104 103.033C-62.8044 91.006 -54.4963 81.3813 -43.9135 76.2762L46.3546 32.8024L-13.0954 3.89999L-42.1715 -10.3126Z" fill="#DD3746" fill-opacity="0.8"/>
  <path d="M136.98 10.9191L186.937 35.2526L134.619 58.722L-62.6677 147.839C-64.0784 145.466 -65.293 142.954 -66.2963 140.336C-68.5953 134.44 -69.8356 128.101 -69.9458 121.685C-70.056 115.269 -69.0341 108.901 -66.9387 102.947L84.7126 34.4645L-63.7764 -37.775C-65.8514 -45.8467 -65.814 -54.3998 -63.6684 -62.4118L179.676 -172.266C185.693 -167.957 190.685 -162.066 194.215 -155.11C197.744 -148.154 199.703 -140.346 199.919 -132.372L14.6268 -48.66L137.054 10.9048" fill="#199CE7"/>
  <path d="M29.793 147.367L28.0328 142.823C26.4751 138.853 25.6307 134.583 25.5483 130.259C25.4659 125.934 26.147 121.641 27.5525 117.626C28.958 113.61 31.06 109.952 33.7377 106.862C36.4154 103.772 39.6158 101.311 43.1549 99.6206L142.396 51.7756L50.3046 7.01537C44.2726 4.20331 39.4098 -1.07922 36.7119 -7.75067C32.0851 -19.6562 31.8483 -33.0974 36.0536 -45.1222C40.2588 -57.147 48.5623 -66.7722 59.1403 -71.8837L199.279 -139.446C201.059 -128.601 199.52 -117.428 194.912 -107.743C190.304 -98.0574 182.898 -90.4288 173.898 -86.0964L90.0626 -45.5812L149.316 -16.8336L158.757 -12.2331C196.866 6.29471 197.125 66.7236 159.188 85.0327L156.458 86.3321L29.793 147.367Z" fill="#FFC700" fill-opacity="0.9"/>
  <path d="M25.2677 -33.023L-58.4657 -73.7445C-54.8835 -79.4699 -50.0645 -84.0792 -44.4542 -87.146C-43.7909 -87.5314 -43.121 -87.8753 -42.414 -88.2263L35.6591 -125.763L139.045 -175.609C145.572 -178.757 152.701 -180.054 159.806 -179.385C166.912 -178.717 173.775 -176.103 179.794 -171.775L59.8836 -113.954L145.769 -72.1914L90.0001 -45.3762L158.891 -11.8734C165.19 -8.89793 170.853 -4.44017 175.494 1.19621L-34.5816 102.536C-36.07 103.255 -37.6726 103.638 -39.2977 103.662C-40.9228 103.685 -42.5387 103.349 -44.0528 102.673C-45.5669 101.997 -46.9495 100.994 -48.1216 99.7216C-49.2938 98.449 -50.2325 96.9317 -50.884 95.2566C-52.2135 91.9418 -52.3365 88.1851 -51.2266 84.791C-50.1167 81.3969 -47.8622 78.6352 -44.9458 77.0972L-43.8145 76.5356L46.4384 33.0862L-12.9395 4.27693L-32.2972 -5.15321L25.2677 -33.023Z" fill="#DD3746" fill-opacity="0.8"/>
</svg>