<svg width="304" height="220" viewBox="0 0 304 220" fill="none" xmlns="http://www.w3.org/2000/svg">
<path d="M43.7163 241.694C32.7854 236.891 23.4423 229 16.8391 218.995C10.2358 208.991 6.66118 197.309 6.55573 185.391C6.45027 173.473 9.8187 161.84 16.2457 151.926C22.6727 142.012 31.8774 134.25 42.7246 129.597L332.077 5.57664C348.955 -1.6805 368.118 -1.86139 385.352 5.07374C402.586 12.0089 416.482 25.4924 423.986 42.5609C427.681 51.0342 429.687 60.1303 429.89 69.3282C430.093 78.5261 428.489 87.6453 425.169 96.1636C421.849 104.682 416.878 112.432 410.542 118.97C404.206 125.508 396.628 130.706 388.243 134.266L254.513 191.736L349.663 233.604L364.775 240.254C425.777 267.033 426.537 353.567 366.022 379.537L361.667 381.38L97.7954 494.453C80.9132 501.692 61.7539 501.852 44.5314 494.896C27.309 487.941 13.4341 474.44 5.95866 457.364C-1.51478 440.287 -1.9762 421.033 4.67579 403.839C11.3278 386.644 24.5483 372.916 41.4297 365.674L185.422 304.01L90.2595 262.236L43.7163 241.694Z" fill="#DD3746" fill-opacity="0.8"/>
<path d="M330.109 273.265L410.077 308.435L326.612 341.701L11.8724 468.028C9.60451 464.62 7.64924 461.016 6.03103 457.26C2.32353 448.802 0.305337 439.717 0.0923874 430.528C-0.120562 421.34 1.4758 412.228 4.79005 403.717L246.725 306.64L9.03572 202.228C5.67371 190.656 5.68439 178.409 9.06683 166.95L397.285 11.229C406.923 17.4389 414.934 25.9073 420.614 35.891C426.294 45.8747 429.469 57.0682 429.86 68.4885L134.256 187.152L330.228 273.245" fill="#199CE7"/>
<path d="M159.615 467.954L156.777 461.436C154.265 455.741 152.891 449.621 152.734 443.428C152.578 437.235 153.642 431.092 155.865 425.351C158.087 419.61 161.425 414.386 165.686 409.979C169.947 405.571 175.047 402.068 180.693 399.67L338.999 331.805L191.586 267.11C181.931 263.044 174.131 255.448 169.781 245.877C162.32 228.798 161.864 209.55 168.515 192.358C175.166 175.166 188.379 161.438 205.252 154.187L428.797 58.3538C431.703 73.8952 429.308 89.8843 422.001 103.723C414.693 117.562 402.903 128.438 388.545 134.583L254.815 192.053L349.663 233.604L364.775 240.254C425.777 267.033 426.537 353.567 366.022 379.537L361.667 381.38L159.615 467.954Z" fill="#FFC700" fill-opacity="0.9"/>
<path d="M151.349 209.613L17.3155 150.756C23.0067 142.581 30.6807 136.012 39.628 131.657C40.6856 131.109 41.7541 130.621 42.8818 130.123L167.422 76.8814L332.339 6.17701C342.751 1.7118 354.136 -0.0985895 365.493 0.905133C376.85 1.90886 387.832 5.69597 397.475 11.9335L206.199 93.9496L343.677 154.311L254.716 192.346L364.992 240.77C375.073 245.071 384.148 251.492 391.596 259.593L56.492 403.338C54.1178 404.359 51.5592 404.896 48.9625 404.919C46.3658 404.943 43.7818 404.451 41.3585 403.473C38.9352 402.495 36.7201 401.05 34.8398 399.22C32.9595 397.39 31.4507 395.211 30.4001 392.808C28.2567 388.053 28.0385 382.673 29.7926 377.82C31.5467 372.967 35.1334 369.027 39.7848 366.843L41.5893 366.047L185.558 304.417L90.5108 262.776L59.5244 249.147L151.349 209.613Z" fill="#DD3746" fill-opacity="0.8"/>
</svg>
