<svg width="270" height="329" viewBox="0 0 270 329" fill="none" xmlns="http://www.w3.org/2000/svg">
<path d="M301.29 160.867C308.988 162.748 315.245 167.949 319.29 175.831C323.335 183.712 324.991 193.929 324.054 205.222C323.118 216.515 319.629 228.39 314.018 239.383C308.408 250.376 300.921 260.006 292.48 267.086L67.3341 455.869C54.1989 466.903 39.9725 471.777 27.7819 469.419C15.5914 467.061 6.43427 457.665 2.3231 443.295C0.30436 436.154 -0.409131 428.008 0.223543 419.322C0.856254 410.636 2.82259 401.582 6.01013 392.677C9.19766 383.772 13.5437 375.192 18.7995 367.428C24.0552 359.664 30.1174 352.868 36.6389 347.43L140.708 260.036L63.0681 241.011C20.1095 230.545 26.9144 148.548 74.0042 109.035L77.3911 106.216L282.708 -65.9174C295.845 -76.9352 310.067 -81.7878 322.247 -79.4078C334.427 -77.0278 343.567 -67.6101 347.657 -53.2263C351.745 -38.8412 350.447 -20.6687 344.05 -2.70602C337.653 15.2567 326.679 31.5384 313.543 42.5579L201.507 136.453L268.523 152.778L301.29 160.867Z" fill="url(#paint0_linear_129_135621)"/>
<defs>
<linearGradient id="paint0_linear_129_135621" x1="325.571" y1="-79.656" x2="-6.31187" y2="450.428" gradientUnits="userSpaceOnUse">
<stop stop-color="#59BFF9"/>
<stop offset="1" stop-color="#103468" stop-opacity="0.4"/>
</linearGradient>
</defs>
</svg>
