<svg xmlns="http://www.w3.org/2000/svg" width="140" height="170" viewBox="0 0 140 170" fill="none">
  <path d="M-39.3863 51.5088C-44.4446 49.3249 -48.7611 45.7212 -51.8036 41.1422C-54.8461 36.5633 -56.4815 31.2092 -56.5083 25.74C-56.535 20.2709 -54.9519 14.9258 -51.9541 10.364C-48.9563 5.80206 -44.6749 2.22276 -39.6378 0.0673485L94.7275 -57.3897C102.565 -60.7517 111.449 -60.8706 119.425 -57.7202C127.402 -54.5698 133.818 -48.408 137.265 -40.589C138.962 -36.7073 139.876 -32.5367 139.953 -28.316C140.03 -24.0953 139.269 -19.9073 137.714 -15.9919C136.159 -12.0765 133.841 -8.51051 130.891 -5.49816C127.942 -2.48582 124.419 -0.0862579 120.526 1.56312L58.4256 28.1873L102.456 47.2236L109.45 50.2468C137.678 62.4222 137.87 102.133 109.769 114.164L107.746 115.018L-14.7864 167.403C-22.6259 170.757 -31.5079 170.866 -39.4788 167.707C-47.4497 164.547 -53.8566 158.377 -57.2902 150.555C-60.723 142.731 -60.9011 133.897 -57.7855 125.993C-54.6699 118.09 -48.5158 111.765 -40.6766 108.41L26.1886 79.8416L-17.8484 60.8486L-39.3863 51.5088Z" fill="#DD3746" fill-opacity="0.8"/>
  <path d="M93.3183 65.4611L130.323 81.4517L91.5697 96.8745L-54.5686 155.437C-55.6136 153.878 -56.5133 152.227 -57.2565 150.507C-58.9595 146.632 -59.8782 142.467 -59.9598 138.25C-60.0415 134.034 -59.2845 129.849 -57.7323 125.937L54.6019 80.9338L-55.3899 33.4622C-56.9269 28.1579 -56.8992 22.5373 -55.31 17.2723L124.945 -54.9178C129.402 -52.086 133.1 -48.2146 135.715 -43.6436C138.329 -39.0725 139.78 -33.9416 139.94 -28.7013L2.68648 26.3092L93.3732 65.4517" fill="#199CE7"/>
  <path d="M13.9208 155.127L12.6169 152.141C11.463 149.532 10.8376 146.726 10.7765 143.884C10.7154 141.043 11.22 138.221 12.2611 135.582C13.3022 132.944 14.8592 130.54 16.8427 128.509C18.8262 126.479 21.1969 124.862 23.8184 123.751L97.3307 92.3097L29.1145 62.8958C24.6464 61.0479 21.0443 57.5765 19.0459 53.1924C15.6186 45.3688 15.4432 36.536 18.5582 28.634C21.6732 20.732 27.8239 14.4069 35.6595 11.0479L139.466 -33.3503C140.785 -26.2235 139.644 -18.8813 136.231 -12.5167C132.818 -6.152 127.332 -1.1389 120.665 1.70811L58.5649 28.3323L102.456 47.2236L109.45 50.2468C137.678 62.4222 137.87 102.133 109.769 114.164L107.746 115.018L13.9208 155.127Z" fill="#FFC700" fill-opacity="0.9"/>
  <path d="M10.5686 36.5849L-51.456 9.82502C-48.8026 6.06261 -45.2329 3.03369 -41.0772 1.01837C-40.5858 0.765099 -40.0896 0.53912 -39.5659 0.308445L18.266 -24.3584L94.848 -57.1146C99.683 -59.1833 104.964 -60.0354 110.227 -59.5961C115.49 -59.1567 120.574 -57.4393 125.032 -54.5948L36.21 -16.598L99.8287 10.8456L58.5186 28.4671L109.549 50.4832C114.215 52.4385 118.409 55.3679 121.847 59.0718L-33.7642 125.666C-34.8666 126.139 -36.0537 126.391 -37.2575 126.406C-38.4614 126.422 -39.6583 126.201 -40.7799 125.757C-41.9014 125.312 -42.9255 124.653 -43.7938 123.817C-44.6621 122.981 -45.3574 121.984 -45.84 120.883C-46.8248 118.705 -46.9159 116.236 -46.0938 114.006C-45.2716 111.775 -43.6016 109.96 -41.4413 108.95L-40.6033 108.581L26.2507 80.0281L-17.7329 61.0963L-32.072 54.8993L10.5686 36.5849Z" fill="#DD3746" fill-opacity="0.8"/>
</svg>