<svg width="754" height="1100" viewBox="0 0 754 1100" fill="none" xmlns="http://www.w3.org/2000/svg">
<path d="M773.746 495.972C794.009 482.631 810.693 462.468 821.74 437.967C832.787 413.466 837.714 385.7 835.915 358.091C834.115 330.482 825.667 304.238 811.612 282.594C797.557 260.951 778.51 244.854 756.819 236.289L178.223 8.00632C144.468 -5.36253 107.501 -1.88724 75.4453 17.6684C43.39 37.2241 18.8704 71.2595 7.27534 112.294C1.57678 132.659 -0.76234 154.123 0.392143 175.455C1.54662 196.788 6.17178 217.571 14.0031 236.614C21.8343 255.658 32.7178 272.587 46.0303 286.434C59.3427 300.281 74.8229 310.773 91.5841 317.31L359.02 423.164L182.646 539.418L154.633 557.881C41.5475 632.266 54.6249 832.728 175.638 880.547L184.343 883.928L711.982 1092.05C745.741 1105.37 782.699 1101.85 814.728 1082.25C846.757 1062.65 871.233 1028.58 882.773 987.531C894.309 946.482 891.962 901.821 876.25 863.37C860.538 824.919 832.747 795.828 798.99 782.496L511.067 669.017L687.482 552.979L773.746 495.972Z" fill="#DD3746" fill-opacity="0.8"/>
<path d="M227.002 627.25L78.7686 724.912L245.246 784.956L873.166 1013.42C876.965 1005.07 880.128 996.328 882.616 987.305C888.341 966.973 890.705 945.534 889.571 924.22C888.437 902.907 883.829 882.139 876.01 863.111L393.342 687.563L833.964 397.569C838.5 370.099 836.421 341.751 827.975 315.913L53.4784 34.3414C35.9424 50.6748 21.9237 71.9055 12.6531 96.1699C3.38255 120.434 -0.856304 146.99 0.308823 173.505L590.056 388.118L226.771 627.228" fill="#199CE7"/>
<path d="M588.365 1043.27L592.742 1027.6C596.626 1013.91 598.246 999.466 597.507 985.099C596.768 970.732 593.685 956.727 588.435 943.89C583.186 931.054 575.874 919.639 566.919 910.302C557.965 900.966 547.546 893.893 536.261 889.49L219.704 764.565L492.985 584.853C510.912 573.479 524.672 554.31 531.447 531.272C542.96 490.223 540.603 445.573 524.894 407.129C509.185 368.686 481.408 339.592 447.664 326.237L0.655177 149.829C-2.33519 186.395 4.96894 222.92 21.3806 253.47C37.7923 284.019 62.3473 306.798 91.0556 318.105L358.491 423.96L182.646 539.418L154.633 557.881C41.5475 632.266 54.6249 832.728 175.638 880.547L184.343 883.928L588.365 1043.27Z" fill="#FFC700" fill-opacity="0.9"/>
<path d="M560.882 443.584L809.353 280.103C797.009 262.336 781.113 248.69 763.134 240.427C761.003 239.375 758.862 238.462 756.604 237.538L507.594 139.602L177.818 9.44941C156.998 1.22921 134.748 -0.647956 113.025 3.98339C91.3013 8.61474 70.7685 19.6129 53.2306 36.0109L435.717 186.992L180.859 354.654L358.731 424.619L154.302 559.119C135.592 571.126 119.179 587.831 106.183 608.098L776.286 872.741C781.034 874.621 786.056 875.345 791.065 874.871C796.075 874.397 800.973 872.735 805.48 869.978C809.986 867.222 814.013 863.427 817.33 858.809C820.647 854.19 823.189 848.84 824.811 843.064C828.143 831.621 827.659 819.123 823.463 808.246C819.266 797.369 811.69 788.977 802.357 784.868L798.745 783.391L510.874 669.987L687.088 554.282L744.527 516.435L560.882 443.584Z" fill="#DD3746" fill-opacity="0.8"/>
</svg>
