<svg xmlns="http://www.w3.org/2000/svg" width="620" height="900" viewBox="0 0 620 900" fill="none">
  <path d="M-14.6459 405.795C-31.2662 394.88 -44.9505 378.383 -54.0115 358.337C-63.0725 338.291 -67.114 315.573 -65.6379 292.983C-64.1618 270.394 -57.2325 248.922 -45.7044 231.214C-34.1763 213.505 -18.5532 200.335 -0.76174 193.327L473.817 6.55063C501.503 -4.38753 531.825 -1.5441 558.118 14.456C584.41 30.4561 604.522 58.3033 614.033 91.8773C618.707 108.539 620.625 126.1 619.678 143.554C618.731 161.008 614.938 178.013 608.514 193.594C602.091 209.174 593.164 223.026 582.245 234.355C571.326 245.685 558.628 254.269 544.88 259.617L325.523 346.226L470.189 441.342L493.166 456.448C585.922 517.309 575.195 681.323 475.937 720.448L468.797 723.214L36.0145 893.493C8.32478 904.397 -21.9893 901.513 -48.2602 885.477C-74.5311 869.441 -94.6072 841.564 -104.072 807.98C-113.534 774.395 -111.61 737.853 -98.7224 706.394C-85.835 674.934 -63.0401 651.132 -35.3515 640.224L200.81 547.378L56.1101 452.438L-14.6459 405.795Z" fill="#DD3746" fill-opacity="0.8"/>
  <path d="M433.807 513.205L555.392 593.11L418.843 642.237L-96.1924 829.16C-99.3083 822.329 -101.903 815.177 -103.944 807.795C-108.639 791.159 -110.578 773.618 -109.648 756.18C-108.718 738.742 -104.938 721.75 -98.5249 706.182L297.371 562.552L-64.0378 325.284C-67.7582 302.808 -66.0531 279.614 -59.1257 258.475L576.136 28.0975C590.519 41.4612 602.018 58.8318 609.622 78.6845C617.226 98.5372 620.702 120.265 619.747 141.959L136.021 317.551L433.997 513.187" fill="#199CE7"/>
  <path d="M137.409 853.585L133.819 840.768C130.632 829.564 129.304 817.745 129.91 805.99C130.516 794.235 133.045 782.777 137.351 772.274C141.656 761.771 147.654 752.432 154.999 744.793C162.343 737.154 170.889 731.367 180.146 727.765L439.793 625.554L215.642 478.516C200.937 469.21 189.651 453.527 184.094 434.677C174.651 401.091 176.584 364.56 189.469 333.106C202.354 301.652 225.137 277.848 252.815 266.921L619.463 122.588C621.915 152.505 615.924 182.389 602.463 207.384C589.002 232.379 568.861 251.017 545.314 260.268L325.957 346.876L470.189 441.342L493.166 456.448C585.922 517.309 575.195 681.323 475.937 720.448L468.797 723.214L137.409 853.585Z" fill="#FFC700" fill-opacity="0.9"/>
  <path d="M159.95 362.932L-43.8518 229.176C-33.7267 214.639 -20.6881 203.474 -5.94161 196.713C-4.19393 195.852 -2.43728 195.105 -0.585654 194.35L203.659 114.22L474.149 7.73134C491.227 1.00572 509.476 -0.530146 527.294 3.25914C545.112 7.04843 561.954 16.0469 576.339 29.4635L262.614 152.993L471.655 290.171L325.76 347.415L493.437 457.461C508.784 467.285 522.246 480.953 532.906 497.535L-16.7288 714.061C-20.6232 715.599 -24.7426 716.192 -28.8514 715.804C-32.9601 715.416 -36.9779 714.056 -40.6744 711.8C-44.371 709.545 -47.6739 706.44 -50.3946 702.662C-53.1152 698.883 -55.2003 694.506 -56.5303 689.78C-59.2636 680.417 -58.8668 670.191 -55.4245 661.292C-51.9823 652.393 -45.7683 645.527 -38.1132 642.165L-35.1504 640.956L200.968 548.171L56.433 453.504L9.3204 422.538L159.95 362.932Z" fill="#DD3746" fill-opacity="0.8"/>
</svg>