<svg xmlns="http://www.w3.org/2000/svg" width="506" height="321" viewBox="0 0 506 321" fill="none">
<path d="M99.5395 545.646C90.565 562.266 77.0003 575.95 60.518 585.011C44.0357 594.072 25.3565 598.114 6.78326 596.638C-11.79 595.162 -29.4451 588.232 -44.0054 576.704C-58.5656 565.176 -69.3942 549.553 -75.1563 531.762L-228.728 57.183C-237.722 29.4965 -235.384 -0.825279 -222.228 -27.1179C-209.073 -53.4104 -186.176 -73.522 -158.571 -83.0326C-144.871 -87.7067 -130.432 -89.6253 -116.081 -88.6784C-101.73 -87.7314 -87.7484 -83.9378 -74.9374 -77.5144C-62.1264 -71.091 -50.7372 -62.164 -41.4221 -51.2448C-32.1069 -40.3256 -25.0486 -27.6285 -20.6514 -13.8805L50.56 205.477L128.767 60.8108L141.187 37.8335C191.228 -54.9217 326.085 -44.1953 358.254 55.0626L360.528 62.2026L500.535 494.985C509.501 522.675 507.13 552.989 493.945 579.26C480.759 605.531 457.839 625.607 430.225 635.072C402.61 644.534 372.565 642.61 346.698 629.722C320.831 616.835 301.261 594.04 292.292 566.351L215.952 330.19L137.89 474.89L99.5395 545.646Z" fill="#DD3746" fill-opacity="0.8"/>
<path d="M187.854 97.193L253.554 -24.392L293.947 112.157L447.639 627.192C442.023 630.308 436.143 632.903 430.073 634.943C416.395 639.639 401.972 641.578 387.634 640.648C373.296 639.718 359.324 635.938 346.524 629.525L228.428 233.629L33.3412 595.038C14.8615 598.758 -4.20901 597.053 -21.5907 590.126L-211.012 -45.1357C-200.024 -59.5192 -185.741 -71.0176 -169.418 -78.6216C-153.095 -86.2256 -135.23 -89.7024 -117.393 -88.7467L26.9832 394.979L187.839 97.0032" fill="#199CE7"/>
<path d="M467.722 393.591L457.184 397.181C447.972 400.368 438.254 401.696 428.589 401.09C418.923 400.484 409.502 397.955 400.866 393.649C392.231 389.343 384.552 383.346 378.271 376.001C371.99 368.657 367.232 360.111 364.27 350.854L280.23 91.207L159.332 315.358C151.681 330.063 138.786 341.349 123.287 346.906C95.6719 356.349 65.6349 354.416 39.7728 341.531C13.9108 328.646 -5.6617 305.863 -14.6456 278.185L-133.32 -88.4626C-108.721 -90.9154 -84.1499 -84.9244 -63.5984 -71.4631C-43.0469 -58.0018 -27.7229 -37.8612 -20.1162 -14.3139L51.0952 205.043L128.767 60.8108L141.187 37.8335C191.228 -54.9217 326.085 -44.1953 358.254 55.0626L360.528 62.2026L467.722 393.591Z" fill="#FFC700" fill-opacity="0.9"/>
<path d="M64.2967 371.05L-45.681 574.852C-57.6336 564.727 -66.8137 551.688 -72.3722 536.942C-73.0803 535.194 -73.6942 533.437 -74.3156 531.586L-140.2 327.341L-227.757 56.851C-233.287 39.7733 -234.55 21.5239 -231.435 3.70571C-228.319 -14.1124 -220.92 -30.954 -209.889 -45.3389L-108.32 268.385L4.47096 59.3448L51.5383 205.24L142.02 37.5626C150.098 22.2158 161.336 8.75381 174.97 -1.90633L353.002 547.729C354.267 551.623 354.754 555.742 354.435 559.851C354.117 563.96 352.998 567.978 351.144 571.674C349.29 575.371 346.736 578.674 343.63 581.394C340.523 584.115 336.924 586.2 333.038 587.53C325.34 590.263 316.932 589.867 309.615 586.424C302.297 582.982 296.652 576.768 293.888 569.113L292.894 566.15L216.604 330.032L138.767 474.567L113.306 521.68L64.2967 371.05Z" fill="#DD3746" fill-opacity="0.8"/>
</svg>