<svg width="200" height="250" viewBox="0 0 200 250" fill="none" xmlns="http://www.w3.org/2000/svg">
<path d="M-42.1715 69.6874C-49.0002 66.3639 -54.8275 60.8801 -58.9349 53.9121C-63.0423 46.9441 -65.25 38.7966 -65.2861 30.4739C-65.3223 22.1513 -63.1851 14.0176 -59.1381 7.07558C-55.0911 0.133568 -49.3111 -5.31319 -42.511 -8.59316L138.882 -96.0278C149.463 -101.144 161.456 -101.325 172.224 -96.5307C182.992 -91.7366 191.655 -82.3599 196.308 -70.4615C198.599 -64.5546 199.832 -58.208 199.936 -51.7852C200.04 -45.3624 199.013 -38.9894 196.914 -33.0311C194.815 -27.0729 191.685 -21.6464 187.703 -17.0624C183.721 -12.4784 178.966 -8.82691 173.71 -6.31699L89.8745 34.1981L149.316 63.1664L158.757 67.7669C196.866 86.2947 197.125 146.724 159.188 165.033L156.458 166.332L-8.96162 246.048C-19.545 251.152 -31.5357 251.318 -42.2963 246.51C-53.057 241.702 -61.7064 232.313 -66.3418 220.409C-70.976 208.504 -71.2165 195.06 -67.0104 183.033C-62.8044 171.006 -54.4963 161.381 -43.9135 156.276L46.3546 112.802L-13.0954 83.9L-42.1715 69.6874Z" fill="#DD3746" fill-opacity="0.8"/>
<path d="M136.98 90.9191L186.937 115.253L134.619 138.722L-62.6677 227.839C-64.0784 225.466 -65.293 222.954 -66.2963 220.336C-68.5953 214.44 -69.8356 208.101 -69.9458 201.685C-70.056 195.269 -69.0341 188.901 -66.9387 182.947L84.7126 114.465L-63.7764 42.225C-65.8514 34.1533 -65.814 25.6002 -63.6684 17.5882L179.676 -92.2662C185.693 -87.9569 190.685 -82.0658 194.215 -75.1098C197.744 -68.1538 199.703 -60.3458 199.919 -52.3715L14.6268 31.34L137.054 90.9048" fill="#199CE7"/>
<path d="M29.793 227.367L28.0328 222.823C26.4751 218.853 25.6307 214.583 25.5483 210.259C25.4659 205.934 26.147 201.641 27.5525 197.626C28.958 193.61 31.06 189.952 33.7377 186.862C36.4154 183.772 39.6158 181.311 43.1549 179.621L142.396 131.776L50.3046 87.0154C44.2726 84.2033 39.4098 78.9208 36.7119 72.2493C32.0851 60.3438 31.8483 46.9026 36.0536 34.8778C40.2588 22.853 48.5623 13.2278 59.1403 8.11634L199.279 -59.4461C201.059 -48.601 199.52 -37.4281 194.912 -27.7428C190.304 -18.0574 182.898 -10.4288 173.898 -6.09636L90.0626 34.4188L149.316 63.1664L158.757 67.7669C196.866 86.2947 197.125 146.724 159.188 165.033L156.458 166.332L29.793 227.367Z" fill="#FFC700" fill-opacity="0.9"/>
<path d="M25.2677 46.977L-58.4657 6.25546C-54.8835 0.53006 -50.0645 -4.07916 -44.4542 -7.14596C-43.7909 -7.53137 -43.121 -7.87525 -42.414 -8.22628L35.6591 -45.7627L139.045 -95.6092C145.572 -98.7572 152.701 -100.054 159.806 -99.3853C166.912 -98.7167 173.775 -96.1033 179.794 -91.7747L59.8836 -33.9535L145.769 7.80857L90.0001 34.6238L158.891 68.1266C165.19 71.1021 170.853 75.5598 175.494 81.1962L-34.5816 182.536C-36.07 183.255 -37.6726 183.638 -39.2977 183.662C-40.9228 183.685 -42.5387 183.349 -44.0528 182.673C-45.5669 181.997 -46.9495 180.994 -48.1216 179.722C-49.2938 178.449 -50.2325 176.932 -50.884 175.257C-52.2135 171.942 -52.3365 168.185 -51.2266 164.791C-50.1167 161.397 -47.8622 158.635 -44.9458 157.097L-43.8145 156.536L46.4384 113.086L-12.9395 84.2769L-32.2972 74.8468L25.2677 46.977Z" fill="#DD3746" fill-opacity="0.8"/>
</svg>
