<svg width="214" height="171" viewBox="0 0 214 171" fill="none" xmlns="http://www.w3.org/2000/svg">
<path d="M186.171 152.719C193 149.728 198.828 144.792 202.935 138.521C207.042 132.25 209.25 124.917 209.286 117.427C209.322 109.936 207.185 102.616 203.138 96.368C199.091 90.1202 193.311 85.2181 186.511 82.2661L5.11789 3.57502C-5.46326 -1.0295 -17.4559 -1.19233 -28.2241 3.12234C-38.9923 7.43702 -47.6548 15.8761 -52.3078 26.5847C-54.599 31.9009 -55.8319 37.6128 -55.9359 43.3933C-56.0399 49.1739 -55.013 54.9096 -52.9139 60.272C-50.8148 65.6344 -47.6847 70.5182 -43.703 74.6438C-39.7213 78.7694 -34.966 82.0558 -29.7096 84.3147L54.1255 120.778L-5.3161 146.85L-14.7572 150.99C-52.8658 167.665 -53.1246 222.051 -15.1879 238.529L-12.4577 239.699L152.962 311.444C163.545 316.037 175.536 316.186 186.296 311.859C197.057 307.532 205.706 299.082 210.342 288.368C214.976 277.654 215.217 265.554 211.01 254.73C206.804 243.905 198.496 235.243 187.913 230.649L97.6454 191.522L157.095 165.51L186.171 152.719Z" fill="#DD3746" fill-opacity="0.8"/>
<path d="M7.02026 171.827L-42.9366 193.727L9.38091 214.85L206.668 295.055C208.078 292.919 209.293 290.659 210.296 288.302C212.595 282.996 213.836 277.291 213.946 271.516C214.056 265.742 213.034 260.011 210.939 254.653L59.2874 193.018L207.776 128.003C209.851 120.738 209.814 113.04 207.668 105.829L-35.6764 6.96043C-41.6929 10.8388 -46.6851 16.1408 -50.2147 22.4012C-53.7442 28.6616 -55.703 35.6887 -55.9193 42.8656L129.373 118.206L6.9462 171.814" fill="#199CE7"/>
<path d="M114.207 294.63L115.967 290.541C117.525 286.968 118.369 283.125 118.452 279.233C118.534 275.341 117.853 271.477 116.448 267.863C115.042 264.249 112.94 260.957 110.262 258.176C107.585 255.395 104.384 253.18 100.845 251.659L1.60359 208.598L93.6954 168.314C99.7274 165.783 104.59 161.029 107.288 155.024C111.915 144.309 112.152 132.212 107.946 121.39C103.741 110.568 95.4377 101.905 84.8597 97.3047L-55.2792 36.4985C-57.0591 46.2591 -55.5201 56.3147 -50.9122 65.0315C-46.3043 73.7483 -38.8983 80.6141 -29.8976 84.5133L53.9374 120.977L-5.3161 146.85L-14.7572 150.99C-52.8658 167.665 -53.1246 222.051 -15.1879 238.529L-12.4577 239.699L114.207 294.63Z" fill="#FFC700" fill-opacity="0.9"/>
<path d="M118.732 132.279L202.466 95.6299C198.883 90.477 194.064 86.3288 188.454 83.5686C187.791 83.2218 187.121 82.9123 186.414 82.5963L108.341 48.8135L4.95525 3.95168C-1.57204 1.11852 -8.70135 -0.0485361 -15.8064 0.553205C-22.9115 1.15495 -29.7749 3.50707 -35.7935 7.40276L84.1164 59.4418L-1.76878 97.0277L53.9999 121.161L-14.8913 151.314C-21.1898 153.992 -26.8526 158.004 -31.4938 163.077L178.582 254.282C180.07 254.93 181.673 255.274 183.298 255.295C184.923 255.317 186.539 255.014 188.053 254.406C189.567 253.797 190.949 252.895 192.122 251.749C193.294 250.604 194.233 249.239 194.884 247.731C196.214 244.748 196.337 241.367 195.227 238.312C194.117 235.257 191.862 232.772 188.946 231.387L187.815 230.882L97.5616 191.778L156.939 165.849L176.297 157.362L118.732 132.279Z" fill="#DD3746" fill-opacity="0.8"/>
</svg>
