<svg width="24" height="24" viewBox="0 0 24 24" fill="none" xmlns="http://www.w3.org/2000/svg">
<g id="Icons/Calendar">
<path id="Vector" d="M7.33333 4V6M16.6667 4V6M4 18L4 8C4 7.46957 4.21071 6.96086 4.58579 6.58579C4.96086 6.21071 5.46957 6 6 6L18 6C18.5304 6 19.0391 6.21071 19.4142 6.58579C19.7893 6.96086 20 7.46957 20 8V18M4 18C4 18.5304 4.21071 19.0391 4.58579 19.4142C4.96086 19.7893 5.46957 20 6 20H18C18.5304 20 19.0391 19.7893 19.4142 19.4142C19.7893 19.0391 20 18.5304 20 18M4 18L4 11.3333C4 10.8029 4.21071 10.2942 4.58579 9.91912C4.96086 9.54405 5.46957 9.33333 6 9.33333L18 9.33333C18.5304 9.33333 19.0391 9.54405 19.4142 9.91912C19.7893 10.2942 20 10.8029 20 11.3333V18" stroke="white" stroke-width="1.5" stroke-linecap="round" stroke-linejoin="round"/>
</g>
</svg>
