<svg width="14" height="16" viewBox="0 0 14 16" fill="none" xmlns="http://www.w3.org/2000/svg">
<g id="Group 20">
<path id="Vector" d="M0 14.5992V12.7992C0 12.6401 0.0691403 12.4875 0.192211 12.375C0.315282 12.2624 0.482202 12.1992 0.65625 12.1992C0.830298 12.1992 0.997218 12.2624 1.12029 12.375C1.24336 12.4875 1.3125 12.6401 1.3125 12.7992V14.5992C1.3125 14.7096 1.4105 14.7993 1.53125 14.7993H12.4688C12.5268 14.7993 12.5824 14.7782 12.6234 14.7407C12.6645 14.7032 12.6875 14.6523 12.6875 14.5992V12.7992C12.6875 12.6401 12.7566 12.4875 12.8797 12.375C13.0028 12.2624 13.1697 12.1992 13.3438 12.1992C13.5178 12.1992 13.6847 12.2624 13.8078 12.375C13.9309 12.4875 14 12.6401 14 12.7992V14.5992C14 14.9706 13.8387 15.3267 13.5515 15.5892C13.2643 15.8518 12.8749 15.9993 12.4688 15.9993H1.53125C1.12514 15.9993 0.735658 15.8518 0.448493 15.5892C0.161328 15.3267 0 14.9706 0 14.5992Z" fill="white"/>
<path id="Vector_2" d="M12.932 6.37651C12.9929 6.43217 13.0413 6.49826 13.0743 6.57101C13.1073 6.64377 13.1243 6.72176 13.1243 6.80052C13.1243 6.87928 13.1073 6.95727 13.0743 7.03002C13.0413 7.10278 12.9929 7.16887 12.932 7.22452L7.46323 12.2246C7.40236 12.2803 7.33007 12.3245 7.2505 12.3547C7.17092 12.3849 7.08563 12.4004 6.99948 12.4004C6.91334 12.4004 6.82804 12.3849 6.74847 12.3547C6.66889 12.3245 6.5966 12.2803 6.53573 12.2246L1.06698 7.22452C1.00608 7.16884 0.957774 7.10274 0.924814 7.02999C0.891855 6.95724 0.874892 6.87926 0.874892 6.80052C0.874892 6.72177 0.891855 6.6438 0.924814 6.57105C0.957774 6.4983 1.00608 6.43219 1.06698 6.37651C1.12788 6.32083 1.20018 6.27666 1.27975 6.24653C1.35932 6.21639 1.44461 6.20088 1.53073 6.20088C1.61686 6.20088 1.70214 6.21639 1.78171 6.24653C1.86128 6.27666 1.93358 6.32083 1.99448 6.37651L6.34323 10.3518L6.34323 0.600442C6.34323 0.44131 6.41237 0.288696 6.53544 0.176173C6.65852 0.0636496 6.82543 0.000435279 6.99948 0.000435294C7.17353 0.000435309 7.34045 0.0636496 7.46352 0.176173C7.58659 0.288696 7.65573 0.44131 7.65573 0.600442L7.65573 10.3518L12.0045 6.37651C12.0654 6.32078 12.1376 6.27657 12.2172 6.2464C12.2968 6.21623 12.3821 6.20071 12.4682 6.20071C12.5544 6.20071 12.6397 6.21623 12.7192 6.2464C12.7988 6.27657 12.8711 6.32078 12.932 6.37651Z" fill="white"/>
</g>
</svg>
