<svg width="24" height="24" viewBox="0 0 24 24" fill="none" xmlns="http://www.w3.org/2000/svg">
<g id="Icons/Eye2">
<g id="Group">
<path id="Vector" d="M10.1253 10.2402C10.6188 9.76866 11.2927 9.5 11.9999 9.5C12.7071 9.5 13.381 9.76866 13.8744 10.2402C14.3671 10.711 14.6394 11.3445 14.6394 12C14.6394 12.6555 14.3671 13.289 13.8744 13.7598C13.381 14.2313 12.7071 14.5 11.9999 14.5C11.2927 14.5 10.6188 14.2313 10.1253 13.7598C9.63266 13.289 9.36035 12.6555 9.36035 12C9.36035 11.3445 9.63266 10.711 10.1253 10.2402ZM10.3225 10.3657C9.8731 10.7951 9.61617 11.3825 9.61617 12C9.61617 12.6175 9.8731 13.2049 10.3225 13.6343C10.7711 14.0629 11.3748 14.3 11.9999 14.3C12.6249 14.3 13.2287 14.0629 13.6773 13.6343C14.1267 13.2049 14.3836 12.6175 14.3836 12C14.3836 11.3825 14.1267 10.7951 13.6773 10.3657C13.2287 9.93705 12.6249 9.7 11.9999 9.7C11.3748 9.7 10.7711 9.93705 10.3225 10.3657Z" fill="white" stroke="white"/>
<path id="Vector_2" fill-rule="evenodd" clip-rule="evenodd" d="M12 5C8.22084 5 5.67488 7.1632 4.19721 8.9976L4.17126 9.0304C3.83637 9.4456 3.52912 9.8272 3.32065 10.2784C3.09712 10.7624 3 11.2896 3 12C3 12.7104 3.09712 13.2376 3.32065 13.7216C3.52995 14.1728 3.83721 14.5552 4.17126 14.9696L4.19805 15.0024C5.67488 16.8368 8.22084 19 12 19C15.7792 19 18.3251 16.8368 19.8028 15.0024L19.8287 14.9696C20.1636 14.5552 20.4709 14.1728 20.6793 13.7216C20.9029 13.2376 21 12.7104 21 12C21 11.2896 20.9029 10.7624 20.6793 10.2784C20.47 9.8272 20.1628 9.4456 19.8287 9.0304L19.802 8.9976C18.3251 7.1632 15.7792 5 12 5ZM5.19349 9.7296C6.55646 8.036 8.77674 6.2 12 6.2C15.2233 6.2 17.4427 8.036 18.8065 9.7296C19.1749 10.1856 19.3892 10.4576 19.5307 10.7632C19.663 11.0496 19.7442 11.3992 19.7442 12C19.7442 12.6008 19.663 12.9504 19.5307 13.2368C19.3892 13.5424 19.174 13.8144 18.8073 14.2704C17.4419 15.964 15.2233 17.8 12 17.8C8.77674 17.8 6.5573 15.964 5.19349 14.2704C4.82512 13.8144 4.61079 13.5424 4.4693 13.2368C4.33702 12.9504 4.25581 12.6008 4.25581 12C4.25581 11.3992 4.33702 11.0496 4.4693 10.7632C4.61079 10.4576 4.82679 10.1856 5.19349 9.7296Z" fill="white"/>
</g>
<path id="Line 3" d="M3.29688 4.59741L22.2969 18.5974" stroke="white" stroke-width="1.5" stroke-linecap="round"/>
</g>
</svg>
