<svg width="72" height="72" viewBox="0 0 72 72" fill="none" xmlns="http://www.w3.org/2000/svg">
<g id="mdi-light:file">
<path id="Vector" d="M44 31.2632C41.4539 31.2632 39.0121 30.265 37.2118 28.4884C35.4114 26.7117 34.4 24.3021 34.4 21.7895V9.15789H21.6C19.9026 9.15789 18.2747 9.82331 17.0745 11.0077C15.8743 12.1922 15.2 13.7986 15.2 15.4737V56.5263C15.2 58.2014 15.8743 59.8078 17.0745 60.9923C18.2747 62.1767 19.9026 62.8421 21.6 62.8421H50.4C52.0974 62.8421 53.7253 62.1767 54.9255 60.9923C56.1257 59.8078 56.8 58.2014 56.8 56.5263V31.2632H44ZM37.6 21.7895C37.6 23.4645 38.2743 25.071 39.4745 26.2554C40.6748 27.4399 42.3026 28.1053 44 28.1053H55.488L37.6 10.4526V21.7895ZM21.6 6H37.6L60 28.1053V56.5263C60 59.0389 58.9886 61.4486 57.1882 63.2252C55.3879 65.0019 52.9461 66 50.4 66H21.6C19.0539 66 16.6121 65.0019 14.8118 63.2252C13.0114 61.4486 12 59.0389 12 56.5263V15.4737C12 12.9611 13.0114 10.5514 14.8118 8.77478C16.6121 6.99812 19.0539 6 21.6 6Z" fill="#2064CB"/>
</g>
</svg>
