<svg width="24" height="24" viewBox="0 0 24 24" fill="none" xmlns="http://www.w3.org/2000/svg">
<path d="M15 10.5C15 11.2956 14.6839 12.0587 14.1213 12.6213C13.5587 13.1839 12.7956 13.5 12 13.5C11.2044 13.5 10.4413 13.1839 9.87868 12.6213C9.31607 12.0587 9 11.2956 9 10.5C9 9.70435 9.31607 8.94129 9.87868 8.37868C10.4413 7.81607 11.2044 7.5 12 7.5C12.7956 7.5 13.5587 7.81607 14.1213 8.37868C14.6839 8.94129 15 9.70435 15 10.5Z" stroke="#A2A2A8" stroke-width="1.5" stroke-linecap="round" stroke-linejoin="round"/>
<path d="M19 10.2C19 17.0563 12 21 12 21C12 21 5 17.0563 5 10.2C5 8.29044 5.7375 6.45909 7.05025 5.10883C8.36301 3.75857 10.1435 3 12 3C13.8565 3 15.637 3.75857 16.9497 5.10883C18.2625 6.45909 19 8.29044 19 10.2Z" stroke="#A2A2A8" stroke-width="1.5" stroke-linecap="round" stroke-linejoin="round"/>
</svg>
