<svg width="8" height="10" viewBox="0 0 8 10" fill="none" xmlns="http://www.w3.org/2000/svg">
<g id="Group">
<path id="Vector" d="M5.28627 4.33333C5.28627 4.68696 5.15081 5.02609 4.9097 5.27614C4.66858 5.52619 4.34155 5.66667 4.00056 5.66667C3.65957 5.66667 3.33254 5.52619 3.09142 5.27614C2.8503 5.02609 2.71484 4.68696 2.71484 4.33333C2.71484 3.97971 2.8503 3.64057 3.09142 3.39052C3.33254 3.14048 3.65957 3 4.00056 3C4.34155 3 4.66858 3.14048 4.9097 3.39052C5.15081 3.64057 5.28627 3.97971 5.28627 4.33333Z" stroke="#A2A2A8" stroke-linecap="round" stroke-linejoin="round"/>
<path id="Vector_2" d="M7 4.2C7 7.24725 4 9 4 9C4 9 1 7.24725 1 4.2C1 3.35131 1.31607 2.53737 1.87868 1.93726C2.44129 1.33714 3.20435 1 4 1C4.79565 1 5.55871 1.33714 6.12132 1.93726C6.68393 2.53737 7 3.35131 7 4.2Z" stroke="#A2A2A8" stroke-linecap="round" stroke-linejoin="round"/>
</g>
</svg>
