<svg width="10" height="10" viewBox="0 0 10 10" fill="none" xmlns="http://www.w3.org/2000/svg">
<g id="SmallIcons">
<path id="Vector" d="M5 4.85C5.38577 4.85 5.75574 4.7025 6.02852 4.43995C6.3013 4.1774 6.45455 3.8213 6.45455 3.45C6.45455 3.0787 6.3013 2.7226 6.02852 2.46005C5.75574 2.1975 5.38577 2.05 5 2.05C4.61423 2.05 4.24426 2.1975 3.97148 2.46005C3.6987 2.7226 3.54545 3.0787 3.54545 3.45C3.54545 3.8213 3.6987 4.1774 3.97148 4.43995C4.24426 4.7025 4.61423 4.85 5 4.85ZM5 4.85C4.42135 4.85 3.86639 5.07125 3.45722 5.46508C3.04805 5.8589 2.81818 6.39305 2.81818 6.95V8M5 4.85C5.57865 4.85 6.13361 5.07125 6.54278 5.46508C6.95195 5.8589 7.18182 6.39305 7.18182 6.95V8M5.36364 2.05C5.51055 1.4676 6.09636 1 6.81818 1C7.608 1 8.26545 1.6265 8.27273 2.4C8.26545 3.1735 7.608 3.8 6.81818 3.8M6.81818 3.8H6.45455M6.81818 3.8C8.01382 3.8 9 4.7401 9 5.9V6.6M4.63636 2.05C4.48945 1.4676 3.90364 1 3.18182 1C2.392 1 1.73455 1.6265 1.72727 2.4C1.73455 3.1735 2.392 3.8 3.18182 3.8M3.18182 3.8H3.54545M3.18182 3.8C1.98618 3.8 1 4.7401 1 5.9V6.6" stroke="#A2A2A8" stroke-linecap="round"/>
</g>
</svg>
