<svg width="24" height="24" viewBox="0 0 24 24" fill="none" xmlns="http://www.w3.org/2000/svg">
<g id="logos:whatsapp-icon" clip-path="url(#clip0_596_74414)">
<g id="Group 74">
<path id="Vector" d="M0.51209 11.8957C0.511527 13.9189 1.04253 15.8943 2.05221 17.6355L0.415527 23.5847L6.53103 21.9883C8.22249 22.9051 10.1177 23.3854 12.0435 23.3855H12.0486C18.4062 23.3855 23.5815 18.2352 23.5842 11.9048C23.5855 8.83723 22.3866 5.95272 20.2084 3.78257C18.0306 1.6126 15.1342 0.416927 12.0481 0.415527C5.68972 0.415527 0.514809 5.56558 0.512184 11.8957" fill="#61BD73"/>
<path id="Vector_2" d="M0.100313 11.892C0.0996563 13.9879 0.649687 16.034 1.69537 17.8376L0 24L6.33478 22.3464C8.08022 23.2938 10.0454 23.7934 12.0451 23.7941H12.0502C18.636 23.7941 23.9972 18.4585 24 11.9015C24.0011 8.72373 22.7591 5.73552 20.5031 3.48762C18.2468 1.24001 15.2468 0.00130665 12.0502 0C5.46337 0 0.102938 5.33485 0.100313 11.892ZM3.87281 17.527L3.63628 17.1532C2.64197 15.5792 2.11716 13.7604 2.11791 11.8927C2.12006 6.4426 6.57544 2.0085 12.054 2.0085C14.7071 2.00962 17.2005 3.03926 19.0759 4.90739C20.9512 6.7757 21.9831 9.25926 21.9824 11.9007C21.98 17.3509 17.5245 21.7855 12.0502 21.7855H12.0463C10.2638 21.7846 8.51569 21.308 6.99113 20.4075L6.62831 20.1933L2.86912 21.1745L3.87281 17.5269V17.527Z" fill="white"/>
<path id="Vector_3" d="M9.06358 6.92042C8.8399 6.42549 8.60449 6.4155 8.39177 6.40682C8.21758 6.39935 8.01846 6.39991 7.81952 6.39991C7.6204 6.39991 7.29687 6.47448 7.0234 6.77175C6.74965 7.06929 5.97827 7.78832 5.97827 9.25073C5.97827 10.7132 7.04824 12.1266 7.1974 12.3251C7.34674 12.5232 9.26299 15.6203 12.2979 16.8118C14.8201 17.802 15.3334 17.605 15.8808 17.5554C16.4283 17.5059 17.6474 16.8366 17.8961 16.1424C18.1451 15.4484 18.1451 14.8535 18.0704 14.7292C17.9958 14.6054 17.7967 14.531 17.4981 14.3824C17.1994 14.2337 15.7315 13.5146 15.4578 13.4154C15.1841 13.3163 14.985 13.2668 14.7859 13.5644C14.5868 13.8616 14.015 14.531 13.8407 14.7292C13.6666 14.9279 13.4923 14.9527 13.1938 14.804C12.8951 14.6548 11.9335 14.3413 10.7926 13.3288C9.90499 12.5409 9.30574 11.5679 9.13155 11.2702C8.95737 10.9731 9.1129 10.812 9.26262 10.6639C9.39677 10.5307 9.5613 10.3168 9.71074 10.1433C9.85962 9.96967 9.9093 9.84582 10.0089 9.64758C10.1085 9.44916 10.0586 9.27556 9.98412 9.12688C9.9093 8.9782 9.32908 7.50813 9.06358 6.92042Z" fill="white"/>
</g>
</g>
<defs>
<clipPath id="clip0_596_74414">
<rect width="24" height="24" fill="white"/>
</clipPath>
</defs>
</svg>
